<?xml version="1.0" encoding="utf-8"?>
<!-- Generator: Adobe Illustrator 24.2.0, SVG Export Plug-In . SVG Version: 6.00 Build 0)  -->
<svg version="1.1" id="Layer_1" xmlns="http://www.w3.org/2000/svg" xmlns:xlink="http://www.w3.org/1999/xlink" x="0px" y="0px"
	 viewBox="0 0 1422.18 1080" style="enable-background:new 0 0 1422.18 1080;" xml:space="preserve">
<style type="text/css">
	.st0{fill:#0886C4;}
	.st1{fill:#F4A700;}
</style>
<g>
	<g>
		<path class="st0" d="M-1422.73,405.43c-102.97,0-186.44,86.35-186.44,192.86c0,106.52,83.47,192.86,186.44,192.86
			c102.97,0,186.44-86.35,186.44-192.86C-1236.29,491.78-1319.76,405.43-1422.73,405.43z M-1422.73,702.19
			c-55.47,0-100.44-46.52-100.44-103.9c0-57.38,44.97-103.9,100.44-103.9c55.47,0,100.44,46.52,100.44,103.9
			C-1322.29,655.68-1367.26,702.19-1422.73,702.19z"/>
		<path class="st0" d="M-634.24,405.43c-102.97,0-186.44,86.35-186.44,192.86c0,106.52,83.47,192.86,186.44,192.86
			c102.97,0,186.44-86.35,186.44-192.86C-447.8,491.78-531.27,405.43-634.24,405.43z M-634.24,702.19
			c-55.47,0-100.44-46.52-100.44-103.9c0-57.38,44.97-103.9,100.44-103.9c55.47,0,100.44,46.52,100.44,103.9
			C-533.8,655.68-578.77,702.19-634.24,702.19z"/>
		<path class="st0" d="M-1029.2,405.43c-34.39,0-66.58,9.67-94.23,26.47v-82.06c0-18.11-14.81-32.92-32.92-32.92h-22.64
			c-16.02,0-29.45,11.61-32.33,26.83c-0.48,2.15-0.75,4.37-0.75,6.65v408.04c0,5.54,1.54,10.72,4,15.34
			c5.54,10.41,16.39,17.62,28.95,17.62h22.61c12.09,0,22.65-6.59,28.37-16.33c1.95-3.26,3.36-6.89,4.09-10.74
			c27.79,17.03,60.21,26.83,94.85,26.83c102.97,0,186.44-86.35,186.44-192.86C-842.76,491.78-926.23,405.43-1029.2,405.43z
			 M-1029.2,702.19c-3.15,0-6.25-0.19-9.33-0.49c-0.97-0.09-1.92-0.23-2.89-0.36c-2.12-0.27-4.22-0.59-6.3-0.99
			c-1.07-0.21-2.12-0.42-3.18-0.66c-2.06-0.47-4.08-1.02-6.09-1.62c-0.91-0.27-1.84-0.51-2.75-0.8c-2.7-0.89-5.35-1.89-7.95-3.01
			c-1.09-0.47-2.13-1.01-3.2-1.52c-1.54-0.73-3.08-1.47-4.58-2.28c-1.32-0.71-2.61-1.46-3.89-2.23c-1.14-0.69-2.27-1.4-3.38-2.13
			c-1.39-0.91-2.78-1.83-4.12-2.81c-0.75-0.55-1.46-1.13-2.19-1.7c-5.25-4.04-10.1-8.59-14.49-13.6c-0.28-0.32-0.56-0.62-0.83-0.94
			c-1.53-1.79-3-3.63-4.41-5.53c-0.09-0.12-0.17-0.24-0.26-0.36c-12.88-17.47-20.62-39.22-20.62-62.89
			c0-23.67,7.74-45.42,20.62-62.89c0.09-0.12,0.17-0.24,0.26-0.36c1.41-1.9,2.88-3.74,4.41-5.53c0.27-0.32,0.55-0.63,0.83-0.94
			c4.39-5.01,9.24-9.56,14.49-13.6c0.73-0.57,1.45-1.15,2.19-1.7c1.35-0.98,2.73-1.89,4.12-2.81c1.11-0.73,2.24-1.44,3.38-2.13
			c1.28-0.77,2.57-1.52,3.89-2.23c1.5-0.81,3.03-1.55,4.58-2.28c1.07-0.5,2.11-1.05,3.2-1.52c2.59-1.12,5.25-2.12,7.95-3.01
			c0.9-0.3,1.83-0.53,2.75-0.8c2.01-0.6,4.03-1.15,6.09-1.62c1.05-0.24,2.11-0.45,3.18-0.66c2.08-0.4,4.18-0.73,6.3-0.99
			c0.96-0.12,1.92-0.26,2.89-0.36c3.07-0.29,6.18-0.49,9.33-0.49c55.47,0,100.44,46.52,100.44,103.9
			C-928.76,655.68-973.73,702.19-1029.2,702.19z"/>
		<path class="st0" d="M-1631.7,568.04c-2.98-89.82-74.07-161.75-161.5-162.12c-46.41,0.2-88.22,20.56-117.68,53.07
			c-29.46-32.5-71.27-52.87-117.68-53.07c-87.42,0.37-158.52,72.3-161.5,162.12c-0.08,0.04-0.07,190.84-0.07,190.84
			c0,17.96,14.56,32.52,32.52,32.52h22.61h0.44c17.96,0,32.52-14.56,32.52-32.52v-0.38c0-0.02,0-0.04,0-0.06l-0.01-59.24
			l-0.02-129.23c0-40.69,32.28-74.99,72.97-75.35c0.18,0,0.36,0,0.55,0c0.18,0,0.36,0,0.55,0c40.44,0.36,72.54,34.24,72.94,74.6
			c-0.05,3.37-0.08,6.75-0.07,10.22c0.03,10.05,0.26,182.29,0.52,183.89c0.01,0.75,0.03,1.22,0.04,1.22
			c2.04,10.7,9.31,19.53,19,23.89c0.13,0.06,0.26,0.13,0.4,0.19c1.06,0.46,2.14,0.85,3.25,1.2c0.67,0.21,1.35,0.39,2.04,0.56
			c0.86,0.21,1.7,0.42,2.58,0.56c1.48,0.24,3,0.38,4.54,0.41c0.18,0,0.35,0.05,0.53,0.05h0.14h22.47h0.14
			c0.18,0,0.35-0.04,0.53-0.05c1.54-0.03,3.06-0.17,4.54-0.41c0.88-0.14,1.73-0.35,2.58-0.56c0.69-0.17,1.37-0.35,2.04-0.56
			c1.11-0.35,2.19-0.74,3.25-1.2c0.13-0.06,0.26-0.13,0.4-0.19c9.69-4.36,16.96-13.19,19-23.89c0.01,0,0.03-0.47,0.04-1.22
			c0.26-1.59,0.44-3.21,0.44-4.88l-0.02-135.14c0.04-18.09,0.07-33.82,0.1-43.87c0.01-3.46-0.02-6.85-0.07-10.22
			c0.4-40.36,32.5-74.24,72.94-74.6c0.18,0,0.36,0,0.55,0c0.18,0,0.36,0,0.55,0c40.69,0.36,72.97,34.66,72.97,75.35l-0.03,188.48
			c0,5.54,1.54,10.72,4,15.34c5.54,10.41,16.39,17.62,28.95,17.62h22.61c16.08,0,29.45-11.64,32.34-26.86
			c0.25,0,0.43-142.73,0.55-185.11c0.01-3.8-0.02-7.52-0.08-11.2C-1631.45,568.17-1631.57,568.1-1631.7,568.04z"/>
		<path class="st1" d="M-603.53,331.84c-10.16-0.61-18.98,7.13-19.63,17.29c-0.31,4.93,1.31,9.69,4.57,13.4
			c3.26,3.71,7.78,5.93,12.71,6.25c103.8,6.65,186.57,92.9,192.54,200.63c0.54,9.8,8.65,17.48,18.46,17.48
			c0.35,0,0.71-0.01,1.03-0.03c10.18-0.56,18.02-9.31,17.45-19.5C-383.39,440.93-481.03,339.68-603.53,331.84z"/>
		<path class="st1" d="M-270.16,582.3c-10.72-193.67-160.27-348.78-347.85-360.79c-6.8-0.4-13.41,1.8-18.56,6.33
			c-5.14,4.52-8.21,10.77-8.65,17.6c-0.9,14.09,9.83,26.3,23.93,27.2C-459.57,283-330.61,417.34-321.32,585.13
			c0.75,13.57,11.98,24.2,25.56,24.2c0.48,0,0.96-0.01,1.43-0.04c6.84-0.38,13.11-3.4,17.68-8.49
			C-272.09,595.7-269.78,589.13-270.16,582.3z"/>
	</g>
</g>
<g>
	<path class="st0" d="M1058.2,658.68c-5.64-170.21-140.37-306.51-306.03-307.21c-87.95,0.37-167.17,38.97-223,100.56
		c-55.83-61.59-135.05-100.18-223-100.56c-165.66,0.7-300.39,137-306.03,307.21C-0.01,658.75,0,1020.31,0,1020.31
		c0,34.03,27.59,61.62,61.62,61.62h42.84h0.83c34.03,0,61.62-27.59,61.62-61.62v-0.71c0-0.04,0-0.08,0-0.12l-0.02-112.26
		l-0.04-244.89c0-77.12,61.17-142.11,138.28-142.79c0.34,0,0.69,0,1.03,0c0.34,0,0.69,0,1.03,0
		c76.63,0.68,137.46,64.88,138.21,141.37c-0.09,6.38-0.15,12.8-0.13,19.36c0.06,19.05,0.48,345.44,0.98,348.46
		c0.02,1.42,0.05,2.32,0.07,2.32c3.86,20.27,17.63,37.01,36,45.27c0.25,0.12,0.5,0.25,0.75,0.36c2,0.87,4.05,1.61,6.16,2.27
		c1.27,0.41,2.56,0.74,3.87,1.07c1.62,0.39,3.23,0.8,4.9,1.06c2.81,0.46,5.68,0.71,8.61,0.78c0.34,0.01,0.66,0.09,1,0.09h0.26h42.58
		h0.26c0.34,0,0.66-0.08,1-0.09c2.93-0.06,5.8-0.32,8.61-0.78c1.67-0.26,3.27-0.67,4.9-1.06c1.3-0.32,2.6-0.66,3.87-1.07
		c2.11-0.66,4.15-1.4,6.15-2.27c0.25-0.11,0.5-0.24,0.75-0.36c18.37-8.26,32.15-25,36-45.27c0.02,0,0.05-0.9,0.07-2.32
		c0.5-3.02,0.83-6.09,0.83-9.24l-0.04-256.09c0.07-34.29,0.13-64.08,0.19-83.13c0.02-6.56-0.05-12.99-0.13-19.36
		c0.76-76.48,61.58-140.69,138.21-141.37c0.34,0,0.69,0,1.03,0c0.34,0,0.69,0,1.03,0c77.11,0.69,138.28,65.68,138.28,142.79
		l-0.06,357.16c0,10.51,2.92,20.31,7.59,29.07c10.51,19.73,31.05,33.38,54.86,33.38h42.84c30.47,0,55.8-22.06,61.28-50.89
		c0.47,0,0.82-270.46,1.05-350.77c0.02-7.2-0.04-14.25-0.14-21.22C1058.67,658.93,1058.44,658.79,1058.2,658.68z"/>
	<path class="st1" d="M790.38,211.09c-19.26-1.16-35.97,13.51-37.2,32.76c-0.6,9.35,2.48,18.37,8.67,25.4
		c6.18,7.03,14.74,11.23,24.09,11.84c196.7,12.59,353.55,176.04,364.86,380.19c1.03,18.58,16.39,33.13,34.98,33.13
		c0.67,0,1.34-0.02,1.96-0.05c19.3-1.07,34.14-17.65,33.08-36.95C1207.55,417.82,1022.52,225.95,790.38,211.09z"/>
	<path class="st1" d="M1422.11,685.71C1401.79,318.7,1118.41,24.78,762.94,2.02c-12.89-0.76-25.42,3.41-35.17,11.99
		c-9.74,8.56-15.56,20.42-16.39,33.36c-1.7,26.71,18.63,49.84,45.35,51.55c306.46,19.62,550.83,274.19,568.44,592.15
		c1.43,25.72,22.7,45.86,48.44,45.86c0.9,0,1.81-0.02,2.71-0.07c12.95-0.72,24.85-6.44,33.5-16.09
		C1418.46,711.11,1422.83,698.65,1422.11,685.71z"/>
</g>
</svg>
