<svg width="208" height="80" viewBox="0 0 208 80" fill="none" xmlns="http://www.w3.org/2000/svg">
<path d="M40.6686 63.1469V55.9192H40.4957C37.2104 61.4524 31.3314 64.3227 24.6917 64.3227C11.1009 64.3227 0 54.0518 0 40.5993C0 25.729 10.6859 15.2852 24.3804 15.2852C31.1931 15.2852 36.8992 17.8097 40.5303 23.1007H40.7032V16.5301H49.4525V63.1123H40.6686V63.1469ZM40.8415 39.9422C40.8415 30.8817 34.2709 23.3082 24.6225 23.3082C15.8732 23.3082 8.74929 30.778 8.74929 39.9422C8.74929 48.6915 15.9078 56.3342 24.6225 56.3342C33.7176 56.3342 40.8415 48.7607 40.8415 39.9422Z" fill="#1e6fd9"/>
<path d="M89.0836 63.1465V38.3165C89.0836 28.2531 85.1066 23.5153 77.1873 23.5153C69.3371 23.5153 64.5994 29.2905 64.5994 38.2473V63.1811H55.6772V16.5989H64.0461V21.6825H64.219C67.7118 17.1176 72.6224 15.3193 78.1556 15.3193C89.6023 15.3193 98.0403 22.547 98.0403 35.7228V63.1465H89.0836Z" fill="#1e6fd9"/>
<path d="M145.141 63.147V56.5073H144.968C141.337 61.5563 135.285 64.3228 128.507 64.3228C114.985 64.3228 104.299 54.0519 104.299 40.3574C104.299 26.1441 114.397 15.3199 128.265 15.3199C134.559 15.3199 140.542 17.6023 144.311 22.3055H144.484V0H153.199V63.147H145.141ZM128.922 23.2738C120 23.2738 113.049 30.7436 113.049 39.9078C113.049 48.6571 120.207 56.2998 128.922 56.2998C137.74 56.2998 145.141 49.0721 145.141 40.2536C145.141 30.7781 138.743 23.2738 128.922 23.2738Z" fill="#1e6fd9"/>
<path d="M207.493 15.3193H197.775L183.285 52.5989L169.176 15.3193H159.458L178.617 62.3857L171.493 79.6076H180.865L207.493 15.3193Z" fill="#1e6fd9"/>
</svg>
