<svg width="300" height="100" viewBox="0 0 300 100" fill="none" xmlns="http://www.w3.org/2000/svg">
<path d="M79.19 30.45C79.19 13.285 67.3375 5.825 54.9725 5.825C36.07 5.825 25.135 16.35 25.135 28.7125C25.135 34.945 30.1425 36.8875 30.1425 38.215C30.1425 39.645 29.4275 40.1575 27.9975 40.1575C22.5825 40.1575 11.75 35.0475 11.75 26.975C11.75 11.75 33.4125 0 55.1775 0C70.71 0 92.37 9.9125 92.37 33.72C92.37 54.36 78.575 75 59.4675 75C50.68 75 42.505 71.425 35.0475 67.6425C29.94 72.65 23.5025 75 16.35 75C7.97 75 0 70.505 0 63.3525C0 55.79 7.1525 51.295 13.08 51.295C19.11 51.295 24.73 53.7475 30.245 56.6075C30.7575 55.79 31.165 54.87 31.5725 53.95C36.58 42.8125 43.7325 17.165 47.9225 14.5075C52.8275 11.2375 58.0375 10.3175 60.3875 10.3175C61.715 10.3175 62.0225 10.93 62.0225 11.7475C62.0225 12.565 58.65 15.7325 56.1975 21.1475C54.87 24.0075 48.635 43.4225 42.4025 57.0125C41.585 58.75 40.665 60.2825 39.745 61.815C44.5475 64.2675 49.2475 66.1075 54.1525 66.1075C68.87 66.11 79.19 48.025 79.19 30.45ZM8.38 64.17C8.38 66.93 11.14 68.7675 14.4075 68.7675C18.9025 68.7675 22.685 67.03 26.1575 62.9425C21.56 60.695 17.4725 59.06 13.795 59.06C10.6275 59.06 8.38 61.41 8.38 64.17Z" fill="white"/>
<path d="M93.75 56.375C93.75 52.315 94.4425 48.725 95.8275 45.6C97.2125 42.475 99 39.85 101.19 37.725C103.38 35.6 105.795 33.99 108.438 32.8925C111.077 31.7975 113.655 31.25 116.168 31.25C118.163 31.25 120.032 31.5725 121.772 32.2175C123.512 32.8625 125.01 33.8125 126.265 35.0675C127.52 36.3225 128.52 37.8375 129.26 39.61C130 41.3825 130.372 43.3625 130.372 45.5525C130.372 48.13 129.855 50.8525 128.825 53.7175C127.792 56.585 126.327 59.225 124.427 61.6425C122.527 64.0575 120.255 66.055 117.615 67.635C114.972 69.2125 112.042 70.0025 108.82 70.0025C106.823 70.0025 104.907 69.6475 103.07 68.94C101.235 68.2325 99.6225 67.265 98.2375 66.04C96.8525 64.8175 95.7575 63.3675 94.9525 61.6925C94.1525 60.015 93.75 58.245 93.75 56.375ZM105.152 58.79C105.152 60.7225 105.555 62.3025 106.36 63.525C107.165 64.75 108.308 65.36 109.79 65.36C111.338 65.36 112.738 64.555 113.995 62.945C115.25 61.335 116.33 59.3375 117.232 56.9525C118.132 54.57 118.827 52.04 119.31 49.3675C119.792 46.695 120.035 44.3275 120.035 42.265C120.035 40.075 119.68 38.5125 118.973 37.5775C118.263 36.645 117.36 36.175 116.268 36.175C115.173 36.175 113.98 36.74 112.692 37.865C111.402 38.9925 110.195 40.57 109.07 42.6C107.942 44.63 107.008 47.0125 106.268 49.75C105.523 52.495 105.152 55.505 105.152 58.79Z" fill="white"/>
<path d="M184.175 31.25C182.725 31.25 182.145 32.0225 182.145 33.1825C182.145 47 170.743 61.8825 167.458 61.8825C166.395 61.8825 165.815 60.7225 165.815 59.2725C165.815 53.0875 172.098 43.5225 172.098 37.7225C172.098 36.2725 167.362 31.2475 164.462 31.2475C164.112 31.2475 163.783 31.325 163.475 31.4525C162.768 31.7475 162.192 32.34 161.855 33.0825C161.182 34.6525 160.265 36.94 159.303 39.6575C158.583 41.6875 157.84 43.9575 157.152 46.3525C153.545 55.0525 147.597 61.8775 145.372 61.8775C144.31 61.8775 143.73 60.7175 143.73 59.2675C143.73 53.0825 150.012 43.5175 150.012 37.7175C150.012 36.2675 145.278 31.2425 142.378 31.2425C141.218 31.2425 140.253 32.015 139.768 33.0775C137.448 38.49 132.23 52.405 132.23 63.2275C132.23 66.61 134.935 69.9925 137.062 69.9925C139.865 69.9925 144.698 68.1575 153.393 62.165C153.718 61.9325 154.043 61.6925 154.365 61.4475C154.335 62.0475 154.318 62.645 154.318 63.2275C154.318 66.61 157.022 69.9925 159.15 69.9925C161.952 69.9925 166.785 68.1575 175.48 62.165C184.177 55.98 191.908 44.675 191.908 39.07C191.908 34.6325 187.173 31.25 184.175 31.25Z" fill="white"/>
<path d="M211.247 23.75C208.495 23.75 206.12 21.7575 206.12 18.3375C206.12 13.495 209.918 8.75 214.095 8.75C216.848 8.75 218.938 10.8375 218.938 13.9725C218.938 19.0025 215.33 23.75 211.247 23.75Z" fill="white"/>
<path d="M207.962 63.525C213.18 63.525 218.303 55.215 218.303 55.215C218.303 55.215 219.075 53.8625 220.235 53.8625C221.298 53.8625 222.265 54.7325 222.265 55.795C222.265 56.665 221.395 58.115 221.395 58.115C221.395 58.115 214.34 70 204.773 70C197.428 70 192.5 65.6525 192.5 59.37C192.5 52.4125 197.718 38.4975 200.038 33.085C200.52 32.0225 201.488 31.25 202.648 31.25C205.548 31.25 210.283 35.3075 210.283 36.7575C210.283 42.555 204.87 50.48 204.87 59.8525C204.87 62.075 206.03 63.525 207.962 63.525Z" fill="white"/>
<path d="M253.558 63.525C258.775 63.525 263.897 55.215 263.897 55.215C263.897 55.215 264.67 53.8625 265.83 53.8625C266.892 53.8625 267.86 54.7325 267.86 55.795C267.86 56.665 266.99 58.115 266.99 58.115C266.99 58.115 259.935 70 250.368 70C243.023 70 238.095 65.6525 238.095 60.24C238.095 52.315 243.023 45.3575 243.023 39.56C243.023 38.69 242.153 38.0125 241.09 38.0125C235.293 38.0125 226.208 49.5125 226.208 68.065C226.208 69.7075 225.435 69.9975 224.083 69.9975C218.96 69.9975 215 67.775 215 64.6825C215 53.9575 220.605 39.5575 222.828 34.05C223.31 32.89 224.278 32.215 225.438 32.215C226.888 32.215 229.208 32.795 232.203 37.4325C232.203 37.4325 239.16 31.2475 247.375 31.2475C251.628 31.2475 255.59 35.79 255.59 39.5575C255.59 45.355 250.468 52.8925 250.468 59.85C250.465 62.075 251.623 63.525 253.558 63.525Z" fill="white"/>
<path d="M287.612 77.1475C284.445 88.765 280.028 100 268.217 100C262.36 100 257.367 95.9675 257.367 90.8775C257.367 85.3075 266.97 79.0675 277.533 74.8425C278.493 71.0975 280.412 63.8975 280.892 61.5925C280.892 61.5925 274.555 69.755 267.258 69.755C262.073 69.755 257.655 65.625 257.655 59.77C257.655 45.9425 269.177 31.2525 279.74 31.2525C287.517 31.2525 290.207 35.765 290.207 35.765C293.087 35.765 297.025 36.9175 297.025 40.2775C297.025 42.1975 294.625 51.0325 291.647 61.9775C291.167 63.61 289.153 71.195 288.67 73.115C291.648 72.4425 294.335 72.06 296.64 72.06C298.175 72.06 300 72.54 300 73.6925C300 74.845 298.462 77.15 297.31 77.15C296.157 77.15 295.485 76.285 292.7 76.285C291.263 76.2825 289.532 76.5725 287.612 77.1475ZM276.09 80.4125C269.56 84.06 264.087 88.9575 264.087 92.99C264.087 94.2375 264.76 94.91 265.815 94.91C270.138 94.91 273.595 87.9025 276.09 80.4125ZM281.758 36.82C276.188 36.82 269.37 50.07 269.37 58.1375C269.37 60.9225 270.137 62.4575 272.155 62.4575C276.765 62.4575 285.31 48.3425 285.31 40.95C285.307 38.1625 283.678 36.82 281.758 36.82Z" fill="white"/>
</svg>
