<svg width="162" height="54" viewBox="0 0 162 54" fill="none" xmlns="http://www.w3.org/2000/svg">
<path d="M42.7626 16.443C42.7626 7.1739 36.3623 3.1455 29.6852 3.1455C19.4778 3.1455 13.5729 8.829 13.5729 15.5048C13.5729 18.8703 16.277 19.9193 16.277 20.6361C16.277 21.4083 15.8909 21.6851 15.1187 21.6851C12.1946 21.6851 6.345 18.9257 6.345 14.5665C6.345 6.345 18.0428 0 29.7959 0C38.1834 0 49.8798 5.35275 49.8798 18.2088C49.8798 29.3544 42.4305 40.5 32.1124 40.5C27.3672 40.5 22.9527 38.5695 18.9257 36.527C16.1676 39.231 12.6914 40.5 8.829 40.5C4.3038 40.5 0 38.0727 0 34.2104C0 30.1266 3.86235 27.6993 7.0632 27.6993C10.3194 27.6993 13.3542 29.0237 16.3323 30.5681C16.6091 30.1266 16.8291 29.6298 17.0492 29.133C19.7532 23.1188 23.6156 9.2691 25.8782 7.83405C28.5269 6.06825 31.3403 5.57145 32.6093 5.57145C33.3261 5.57145 33.4921 5.9022 33.4921 6.34365C33.4921 6.7851 31.671 8.49555 30.3467 11.4197C29.6298 12.9641 26.2629 23.4482 22.8974 30.7868C22.4559 31.725 21.9591 32.5526 21.4623 33.3801C24.0557 34.7045 26.5937 35.6981 29.2424 35.6981C37.1898 35.6994 42.7626 25.9335 42.7626 16.443ZM4.5252 34.6518C4.5252 36.1422 6.0156 37.1345 7.78005 37.1345C10.2074 37.1345 12.2499 36.1962 14.1251 33.989C11.6424 32.7753 9.43515 31.8924 7.4493 31.8924C5.73885 31.8924 4.5252 33.1614 4.5252 34.6518Z" fill="#6D35CC"/>
<path d="M50.625 30.4425C50.625 28.2501 50.9989 26.3115 51.7468 24.624C52.4947 22.9365 53.46 21.519 54.6426 20.3715C55.8252 19.224 57.1293 18.3546 58.5562 17.762C59.9818 17.1707 61.3737 16.875 62.7304 16.875C63.8077 16.875 64.8175 17.0491 65.7571 17.3974C66.6967 17.7457 67.5054 18.2588 68.1831 18.9365C68.8608 19.6142 69.4008 20.4323 69.8004 21.3894C70.2 22.3465 70.4011 23.4158 70.4011 24.5984C70.4011 25.9902 70.1217 27.4603 69.5655 29.0074C69.0079 30.5559 68.2168 31.9815 67.1908 33.2869C66.1648 34.591 64.9377 35.6697 63.5121 36.5229C62.0851 37.3748 60.5029 37.8013 58.7628 37.8013C57.6841 37.8013 56.65 37.6096 55.6578 37.2276C54.6669 36.8456 53.7962 36.3231 53.0483 35.6616C52.3004 35.0014 51.709 34.2184 51.2743 33.3139C50.8423 32.4081 50.625 31.4523 50.625 30.4425ZM56.7823 31.7466C56.7823 32.7901 56.9997 33.6434 57.4344 34.3035C57.8691 34.965 58.486 35.2944 59.2866 35.2944C60.1222 35.2944 60.8782 34.8597 61.5573 33.9903C62.235 33.1209 62.8182 32.0422 63.3055 30.7543C63.7915 29.4678 64.1668 28.1016 64.4274 26.6584C64.6879 25.2153 64.8189 23.9368 64.8189 22.8231C64.8189 21.6405 64.6272 20.7967 64.2451 20.2918C63.8617 19.7883 63.3744 19.5345 62.7844 19.5345C62.1931 19.5345 61.5492 19.8396 60.8539 20.4471C60.1573 21.056 59.5053 21.9078 58.8978 23.004C58.2889 24.1002 57.784 25.3867 57.3844 26.865C56.9821 28.3473 56.7823 29.9727 56.7823 31.7466Z" fill="#6D35CC"/>
<path d="M99.4546 16.875C98.6716 16.875 98.3584 17.2922 98.3584 17.9186C98.3584 25.38 92.2011 33.4166 90.4272 33.4166C89.8534 33.4166 89.5402 32.7902 89.5402 32.0072C89.5402 28.6673 92.9328 23.5022 92.9328 20.3702C92.9328 19.5872 90.3759 16.8737 88.8099 16.8737C88.6209 16.8737 88.4427 16.9155 88.2766 16.9844C87.8946 17.1437 87.5841 17.4636 87.4018 17.8646C87.0387 18.7124 86.5432 19.9476 86.0235 21.4151C85.6347 22.5113 85.2337 23.7371 84.8625 25.0304C82.9144 29.7284 79.7028 33.4139 78.5013 33.4139C77.9275 33.4139 77.6143 32.7875 77.6143 32.0045C77.6143 28.6646 81.0069 23.4995 81.0069 20.3675C81.0069 19.5845 78.45 16.871 76.884 16.871C76.2576 16.871 75.7365 17.2881 75.4746 17.8619C74.2218 20.7846 71.4043 28.2987 71.4043 34.1429C71.4043 35.9694 72.865 37.796 74.0139 37.796C75.5272 37.796 78.1368 36.8051 82.8321 33.5691C83.0076 33.4436 83.1831 33.314 83.3572 33.1817C83.341 33.5057 83.3316 33.8283 83.3316 34.1429C83.3316 35.9694 84.7923 37.796 85.9411 37.796C87.4545 37.796 90.064 36.8051 94.7593 33.5691C99.456 30.2292 103.63 24.1245 103.63 21.0978C103.63 18.7016 101.073 16.875 99.4546 16.875Z" fill="#6D35CC"/>
<path d="M114.074 12.825C112.587 12.825 111.305 11.749 111.305 9.90223C111.305 7.28728 113.355 4.72498 115.611 4.72498C117.098 4.72498 118.226 5.85223 118.226 7.54513C118.226 10.2613 116.278 12.825 114.074 12.825Z" fill="#6D35CC"/>
<path d="M112.3 34.3035C115.117 34.3035 117.883 29.8161 117.883 29.8161C117.883 29.8161 118.3 29.0857 118.927 29.0857C119.501 29.0857 120.023 29.5555 120.023 30.1293C120.023 30.5991 119.553 31.3821 119.553 31.3821C119.553 31.3821 115.744 37.8 110.577 37.8C106.611 37.8 103.95 35.4523 103.95 32.0598C103.95 28.3027 106.767 20.7886 108.02 17.8659C108.281 17.2921 108.803 16.875 109.43 16.875C110.996 16.875 113.553 19.066 113.553 19.849C113.553 22.9797 110.63 27.2592 110.63 32.3203C110.63 33.5205 111.256 34.3035 112.3 34.3035Z" fill="#6D35CC"/>
<path d="M136.921 34.3035C139.739 34.3035 142.505 29.8161 142.505 29.8161C142.505 29.8161 142.922 29.0858 143.548 29.0858C144.122 29.0858 144.644 29.5556 144.644 30.1293C144.644 30.5991 144.175 31.3821 144.175 31.3821C144.175 31.3821 140.365 37.8 135.199 37.8C131.232 37.8 128.571 35.4524 128.571 32.5296C128.571 28.2501 131.232 24.4931 131.232 21.3624C131.232 20.8926 130.762 20.5268 130.189 20.5268C127.058 20.5268 122.152 26.7368 122.152 36.7551C122.152 37.6421 121.735 37.7987 121.005 37.7987C118.238 37.7987 116.1 36.5985 116.1 34.9286C116.1 29.1371 119.127 21.3611 120.327 18.387C120.587 17.7606 121.11 17.3961 121.736 17.3961C122.519 17.3961 123.772 17.7093 125.389 20.2136C125.389 20.2136 129.146 16.8737 133.583 16.8737C135.879 16.8737 138.019 19.3266 138.019 21.3611C138.019 24.4917 135.253 28.562 135.253 32.319C135.251 33.5205 135.876 34.3035 136.921 34.3035Z" fill="#6D35CC"/>
<path d="M155.311 41.6596C153.6 47.9331 151.215 54 144.838 54C141.674 54 138.979 51.8224 138.979 49.0738C138.979 46.066 144.164 42.6964 149.868 40.4149C150.386 38.3926 151.423 34.5046 151.682 33.2599C151.682 33.2599 148.26 37.6677 144.319 37.6677C141.519 37.6677 139.134 35.4375 139.134 32.2758C139.134 24.8089 145.356 16.8763 151.06 16.8763C155.26 16.8763 156.712 19.3131 156.712 19.3131C158.267 19.3131 160.394 19.9354 160.394 21.7498C160.394 22.7866 159.098 27.5575 157.49 33.4678C157.231 34.3494 156.142 38.4453 155.882 39.4821C157.49 39.1189 158.941 38.9124 160.186 38.9124C161.015 38.9124 162 39.1716 162 39.7939C162 40.4163 161.17 41.661 160.547 41.661C159.925 41.661 159.562 41.1939 158.058 41.1939C157.282 41.1925 156.348 41.3491 155.311 41.6596ZM149.089 43.4227C145.562 45.3924 142.607 48.037 142.607 50.2146C142.607 50.8882 142.97 51.2514 143.54 51.2514C145.874 51.2514 147.741 47.4673 149.089 43.4227ZM152.149 19.8828C149.141 19.8828 145.46 27.0378 145.46 31.3942C145.46 32.8981 145.874 33.727 146.964 33.727C149.453 33.727 154.067 26.1049 154.067 22.113C154.066 20.6077 153.186 19.8828 152.149 19.8828Z" fill="#6D35CC"/>
</svg>
