<svg width="14" height="23" viewBox="0 0 14 23" fill="none" xmlns="http://www.w3.org/2000/svg">
<path d="M2.1 0H11.9C13.0594 0 14 0.96582 14 2.15625V20.8438C14 22.0342 13.0594 23 11.9 23H2.1C0.940625 23 0 22.0342 0 20.8438V2.15625C0 0.96582 0.940625 0 2.1 0ZM7 21.5625C7.77437 21.5625 8.4 20.9201 8.4 20.125C8.4 19.3299 7.77437 18.6875 7 18.6875C6.22563 18.6875 5.6 19.3299 5.6 20.125C5.6 20.9201 6.22563 21.5625 7 21.5625ZM2.1 16.7109C2.1 17.0074 2.33625 17.25 2.625 17.25H11.375C11.6637 17.25 11.9 17.0074 11.9 16.7109V2.69531C11.9 2.39883 11.6637 2.15625 11.375 2.15625H2.625C2.33625 2.15625 2.1 2.39883 2.1 2.69531V16.7109Z" fill="#CCCCCC"/>
</svg>
