<svg width="21" height="21" viewBox="0 0 21 21" fill="none" xmlns="http://www.w3.org/2000/svg">
<path d="M21 19.6273C21 19.7912 20.9077 19.9415 20.7231 20.078C20.5386 20.2146 20.2549 20.3273 19.8721 20.4161C19.4893 20.5049 19.0962 20.5868 18.6929 20.6619C18.2896 20.7371 17.7734 20.7951 17.1445 20.8361C16.5156 20.8771 15.9687 20.9078 15.5039 20.9283C15.0391 20.9488 14.4409 20.9659 13.7095 20.9795C12.978 20.9932 12.4243 21 12.0483 21H8.95166L7.29053 20.9795L5.49609 20.9283L3.85547 20.8361L2.30713 20.6619L1.12793 20.4161L0.276855 20.078L0 19.6273C0.0273438 18.4254 0.779297 17.3634 2.25586 16.4415C3.73242 15.5195 5.60547 14.9083 7.875 14.6078V13.9317C7.16406 13.6176 6.54883 13.1737 6.0293 12.6C5.50977 12.0263 5.09961 11.3537 4.79883 10.582C4.49805 9.81024 4.2793 8.9839 4.14258 8.10293C4.00586 7.22195 3.9375 6.26927 3.9375 5.24488C3.9375 4.37073 4.1084 3.59219 4.4502 2.90927C4.79199 2.22634 5.26367 1.67659 5.86523 1.26C6.4668 0.843415 7.15723 0.529268 7.93652 0.317561C8.71582 0.105854 9.57031 0 10.5 0C11.4297 0 12.2842 0.105854 13.0635 0.317561C13.8428 0.529268 14.5332 0.843415 15.1348 1.26C15.7363 1.67659 16.208 2.22634 16.5498 2.90927C16.8916 3.59219 17.0625 4.37073 17.0625 5.24488C17.0625 10.0254 15.75 12.9346 13.125 13.9727V14.6078C15.3945 14.9083 17.2676 15.5195 18.7441 16.4415C20.2207 17.3634 20.9727 18.4254 21 19.6273Z" fill="#6D35CC"/>
</svg>
